<?xml version="1.0" encoding="UTF-8"?><svg id="JAPANESE" xmlns="http://www.w3.org/2000/svg" viewBox="0 0 1080 1080"><g><path d="M592.99,972.19L1056.71,169c23.55-40.79-5.89-91.79-52.99-91.79H76.28C29.18,77.22-.26,128.21,23.29,169L487.01,972.19c23.55,40.79,82.43,40.79,105.98,0L1056.71,169c23.55-40.79-5.89-91.79-52.99-91.79H76.28C29.18,77.22-.26,128.21,23.29,169L487.01,972.19c23.55,40.79,82.43,40.79,105.98,0Z" fill="#db5b54"/><g><g><path d="M442.96,630.56l47.82,156.96s23.39,21.96,84.13,6.92c60.74-15.04,65.95-37.29,65.95-37.29l-3.66-164.52" fill="#f7df53"/><path d="M535.46,804.34c-33.02,0-47.08-12.73-47.85-13.45l-.9-.85-48.18-158.14,8.87-2.7,47.4,155.6c1.99,1.47,7.53,5.04,17.25,7.54,11.65,2.99,31.82,5,61.75-2.41,51.49-12.75,61.12-30.52,62.41-33.52l-3.64-163.69,9.27-.21,3.67,165.11-.13,.57c-.6,2.56-7.64,25.44-69.35,40.73-15.87,3.93-29.32,5.41-40.57,5.41Z"/></g><g><ellipse cx="540.08" cy="611.59" rx="98.95" ry="27.6" transform="translate(-107.2 114.85) rotate(-11.05)" fill="#f7df53"/><path d="M488.86,649.3c-4.94,0-9.65-.17-14.08-.52-21.92-1.74-34.49-7.73-36.37-17.33-1.87-9.6,7.52-19.88,27.18-29.74,17.71-8.88,41.97-16.61,68.31-21.75,26.34-5.14,51.73-7.12,71.48-5.55,21.92,1.74,34.49,7.73,36.37,17.33h0c1.87,9.6-7.52,19.88-27.18,29.74-17.71,8.88-41.97,16.61-68.31,21.75-20.44,3.99-40.3,6.07-57.4,6.07Zm102.4-66.16c-16.48,0-35.71,2.02-55.58,5.9-25.54,4.99-48.96,12.42-65.94,20.94-16.41,8.23-22.99,15.81-22.23,19.68,.76,3.87,9.71,8.42,28.01,9.87,18.93,1.5,43.43-.42,68.97-5.4,25.54-4.99,48.96-12.42,65.94-20.94,16.41-8.23,22.99-15.81,22.23-19.68h0c-.76-3.87-9.71-8.42-28.01-9.87-4.2-.33-8.69-.5-13.39-.5Z"/></g><path d="M535.46,628.06c-2.17,0-4.11-1.53-4.54-3.75-.47-2.39-11.24-59.12,4.28-115.02,.68-2.47,3.24-3.91,5.7-3.23,2.47,.68,3.91,3.24,3.23,5.7-14.92,53.73-4.22,110.2-4.11,110.77,.49,2.51-1.15,4.94-3.66,5.43-.3,.06-.6,.09-.89,.09Z"/><g><path d="M538.01,515.1s28.04-11.26,40.67-19.5c15.36-10.04,39.5-27.73,71.6-63.79,32.09-36.06,24.33-59.9,24.33-59.9,0,0-22.97-12.86-67.17,31.8-44.2,44.66-63.79,78.72-69.42,111.4Z" fill="#76a780"/><path d="M532.03,522.49l1.41-8.18c6.12-35.55,27.92-70.67,70.69-113.87,46.15-46.63,71.67-33.17,72.73-32.58l1.58,.88,.56,1.72c.35,1.08,8.21,26.8-25.27,64.41-32.79,36.84-57.09,54.51-72.53,64.59-12.86,8.4-40.31,19.46-41.47,19.92l-7.7,3.09Zm133.55-147.63c-9.16,0-27.58,4.53-54.87,32.1-37.88,38.26-58.69,69.67-66.36,100.47,9.15-3.92,23.81-10.5,31.78-15.71,14.99-9.79,38.62-26.98,70.67-62.99,15.55-17.47,21.07-31.68,22.96-40.51,1.29-6.02,1.1-10.42,.8-12.82-1.13-.27-2.79-.52-4.98-.52Z"/></g><g><path d="M387.81,364.54s48.85-11.76,82.29,13.73c33.44,25.49,55.83,53.59,62.75,75.36,6.92,21.78,9.76,36.34,9.76,36.34,0,0-35.91,9.68-97.26-35.71-61.34-45.39-57.55-89.72-57.55-89.72Z" fill="#76a780"/><path d="M533.2,495.49c-15.37,0-46.78-5.07-90.6-37.5-62.7-46.4-59.57-91.92-59.41-93.84l.28-3.33,3.25-.78c2.08-.5,51.39-11.97,86.18,14.55,32.79,24.99,56.85,54.02,64.36,77.64,6.92,21.78,9.78,36.25,9.9,36.86l.83,4.24-4.17,1.12c-.46,.12-4.1,1.04-10.62,1.04Zm-140.72-127.14c.27,4.33,1.38,12.5,5.65,22.93,10.81,26.41,33.15,46.8,49.98,59.26,30.57,22.62,54.37,30.92,68.95,33.89,9.16,1.87,15.91,1.92,19.96,1.64-1.37-5.94-4.13-17.01-8.59-31.04-6.95-21.88-29.81-49.2-61.14-73.08-26.2-19.97-63.25-15.61-74.81-13.61Z"/></g></g></g><g><path d="M167.61,244.88v-.56c0-4.34,6.16-6.44,6.16-13.3v-70.84h-4.2c-10.08,0-11.9,17.36-19.18,17.36h-2.66c-2.66,0-4.34-1.68-3.92-4.34l2.8-20.16c.42-3.36,1.82-4.62,5.18-4.62h72.52c3.36,0,4.76,1.26,5.18,4.62l2.8,20.16c.42,2.66-1.26,4.34-3.92,4.34h-2.66c-7.28,0-9.1-17.36-19.18-17.36h-4.2v70.84c0,6.86,6.3,8.96,6.3,13.3v.56c0,1.82-1.4,2.94-3.5,2.94h-34.16c-2.1,0-3.36-1.12-3.36-2.94Z"/><path d="M318.67,244.33v.56c0,1.82-1.4,2.94-3.5,2.94h-30.94c-2.1,0-3.5-1.12-3.5-2.94v-.56c0-4.34,5.46-6.44,5.04-13.3l-1.4-25.48c-.7-11.62-2.24-16.1-7.7-16.1-5.04,0-6.86,4.76-6.86,12.04v29.54c0,6.86,6.44,8.96,6.44,13.3v.56c0,1.82-1.4,2.94-3.5,2.94h-33.74c-2.1,0-3.5-1.12-3.5-2.94v-.56c0-4.34,6.44-6.44,6.44-13.3v-61.18c0-6.86-7.14-7.56-7.14-11.9v-.56c0-1.82,1.4-3.36,3.5-4.34l24.92-10.92c3.5-1.54,5.74-.42,5.74,3.08v39.48c3.92-3.5,9.38-5.46,16.1-5.46,11.76,0,24.92,6.16,26.6,27.3l1.96,24.5c.56,6.86,5.04,8.96,5.04,13.3Z"/><path d="M402.38,243.63c0,4.06-6.16,5.04-15.96,5.04-9.1,0-13.02-1.96-14-7.28-3.5,5.04-9.8,7.84-19.18,7.84-13.72,0-26.18-9.52-26.18-26.46v-22.96c0-6.86-5.74-8.96-5.74-12.74v-.56c0-1.68,1.4-3.22,3.5-3.5l23.24-3.08c4.62-.56,7.42,.42,7.42,3.22l-.56,42.56c-.14,10.22,2.1,13.3,7,13.3,3.92,0,7-4.76,7-12.04v-27.16c0-6.86-5.74-8.96-5.74-12.74v-.56c0-1.68,1.4-3.22,3.5-3.5l23.24-3.08c4.62-.56,6.86,.42,6.86,3.22v48.3c0,11.76,5.6,6.02,5.6,12.18Z"/><path d="M483.3,243.63c0,4.06-9.24,5.04-17.5,5.04-8.96,0-13.16-1.68-14.42-6.16-2.94,3.64-8.26,6.72-17.22,6.72-14.84,0-26.6-6.72-26.6-21.28s12.04-21.56,25.06-21.56c5.46,0,9.94,1.12,13.44,3.08-1.68-16.24-1.82-22.96-8.12-22.96-8.26,0-3.92,19.46-17.78,19.46-6.58,0-11.06-4.06-11.06-10.08,0-12.46,14.84-16.66,28.84-16.66,19.18,0,33.04,10.92,35.28,28l3.22,24.22c1.4,10.36,6.86,8.12,6.86,12.18Zm-67.9-79.1l15.4-15.82c2.1-2.38,3.92-2.94,6.58-2.94h4.9c2.66,0,4.62,.84,6.58,2.8l17.08,15.96c4.34,4.34,.14,10.08-5.74,7.14l-21-10.22-18.62,10.22c-3.36,1.82-9.94-2.1-5.18-7.14Zm32.76,67.76l-.56-6.58c-1.12-8.68-4.2-11.2-6.86-11.2-2.8,0-4.76,3.22-4.76,7.98,0,10.08,2.52,18.9,7.14,18.9,3.5,0,5.32-5.18,5.04-9.1Zm1.4-88.9c-3.78-1.54-4.2-4.9-1.96-7.98l5.88-8.68c2.24-3.08,5.6-3.64,8.54-.28l17.92,19.74c1.4,1.54,1.68,4.06,0,5.88-1.26,1.68-3.78,1.82-5.88,.98l-24.5-9.66Z"/><path d="M569.82,244.47v.56c0,1.82-1.4,2.94-3.5,2.94h-30.94c-2.1,0-3.5-1.12-3.5-2.94v-.56c0-4.34,5.46-6.44,5.04-13.3l-1.4-24.22c-.7-13.02-2.24-17.5-7.7-17.5-5.04,0-6.86,4.76-6.86,12.04v29.68c0,6.86,6.44,8.96,6.44,13.3v.56c0,1.82-1.4,2.94-3.5,2.94h-33.74c-2.1,0-3.5-1.12-3.5-2.94v-.56c0-4.34,6.44-6.44,6.44-13.3v-23.66c0-6.86-7.84-8.12-7.84-12.46v-.56c0-1.82,1.54-2.66,3.64-3.78l21.98-10.92c3.78-1.96,5.74,.7,5.74,3.64v5.74c3.64-6.44,10.5-9.94,19.6-9.94,11.76,0,24.92,6.16,26.74,28.7l1.82,23.24c.56,6.86,5.04,8.96,5.04,13.3Z"/><path d="M600.62,196.73c0-28.14,18.2-49.56,46.62-49.56,21.84,0,41.3,11.06,41.3,26.88,0,7.28-4.9,12.46-13.16,12.46-19.32,0-19.18-28.28-33.74-28.28-6.72,0-13.3,7.14-13.3,20.86,0,27.16,14.84,44.38,30.1,44.38,12.04,0,17.5-7.98,21.56-12.6,2.8-3.22,8.26-2.1,8.26,2.66,0,17.92-12.04,35.7-39.48,35.7-28.98,0-48.16-25.06-48.16-52.5Z"/><path d="M776.46,244.33v.56c0,1.82-1.4,2.94-3.5,2.94h-30.94c-2.1,0-3.5-1.12-3.5-2.94v-.56c0-4.34,5.46-6.44,5.04-13.3l-1.4-25.48c-.7-11.62-2.24-16.1-7.7-16.1-5.04,0-6.86,4.76-6.86,12.04v29.54c0,6.86,6.44,8.96,6.44,13.3v.56c0,1.82-1.4,2.94-3.5,2.94h-33.74c-2.1,0-3.5-1.12-3.5-2.94v-.56c0-4.34,6.44-6.44,6.44-13.3v-61.18c0-6.86-7.14-7.56-7.14-11.9v-.56c0-1.82,1.4-3.36,3.5-4.34l24.92-10.92c3.5-1.54,5.74-.42,5.74,3.08v39.48c3.92-3.5,9.38-5.46,16.1-5.46,11.76,0,24.92,6.16,26.6,27.3l1.96,24.5c.56,6.86,5.04,8.96,5.04,13.3Z"/><path d="M856.54,243.63c0,4.06-9.24,5.04-17.5,5.04-8.96,0-13.16-1.68-14.42-6.16-2.94,3.64-8.26,6.72-17.22,6.72-14.84,0-26.6-6.72-26.6-21.28s12.04-21.56,25.06-21.56c5.46,0,9.94,1.12,13.44,3.08-1.68-16.24-1.82-22.96-8.12-22.96-8.26,0-3.92,19.46-17.78,19.46-6.58,0-11.06-4.06-11.06-10.08,0-12.46,14.84-16.66,28.84-16.66,19.18,0,33.04,10.92,35.28,28l3.22,24.22c1.4,10.36,6.86,8.12,6.86,12.18Zm-35.14-11.34l-.56-6.58c-1.12-8.68-4.2-11.2-6.86-11.2-2.8,0-4.76,3.22-4.76,7.98,0,10.08,2.52,18.9,7.14,18.9,3.5,0,5.32-5.18,5.04-9.1Z"/><path d="M937.45,183.57v.56c0,4.34-5.04,6.86-7.98,13.3l-26.32,56.56c-3.64,7.84-11.76,24.08-26.74,24.08s-23.66-8.4-23.66-17.22c0-6.58,4.2-11.06,11.2-11.06,15.12,0,10.22,20.16,16.1,20.16,4.06,0,8.82-8.96,12.18-17.08l-28.84-55.44c-3.5-6.72-8.12-8.96-8.12-13.3v-.56c0-1.82,1.4-2.94,3.5-2.94h33.32c1.96,0,3.36,1.26,3.36,3.08v.56c0,4.2-5.32,5.18-1.82,13.58l12.46,30.1,11.2-27.44c4.2-10.22-6.86-12.04-6.86-16.24v-.56c0-1.82,1.4-3.08,3.5-3.08h20.02c2.1,0,3.5,1.12,3.5,2.94Z"/></g></svg>